<svg xmlns="http://www.w3.org/2000/svg" viewBox="0 0 577.62 744.18"><title>Recurso 2</title><g id="Capa_2" data-name="Capa 2"><g id="Capa_1-2" data-name="Capa 1"><path d="M577.61,303.54c.3,32.12-5.68,60.88-14.91,89-16.5,50.36-41.26,96.69-69.8,141.08C455.76,591.45,413.47,645.17,364,692.89c-14.33,13.82-30.34,25.93-45.84,38.51-4.22,3.42-9.36,5.71-14.12,8.44-10.44,6-20.8,5.56-31.43.13-15.57-8-29.28-18.48-42.37-29.86-38-33.06-70.83-70.91-101.25-110.89C95,554.59,64.87,507.53,40.6,456.86,24.28,422.8,10.9,387.7,4.09,350.39-3.66,307.94.07,266,11.3,224.71,33.07,144.79,78,81.38,149.58,38.68,252-22.39,379.37-10.26,470,68.79,530.62,121.66,564.5,189,575,268.47c.82,6.27,1.37,12.58,1.83,18.89C577.24,293.51,577.42,299.67,577.61,303.54Zm-51.8-14.34C526.25,160.48,420,52.86,292.21,52.52c-133-.36-239.63,104.28-240,235.85-.34,132.54,107.29,238.11,238.65,237.74C419.6,525.75,525.36,419.68,525.81,289.2Z"/><path d="M435.83,194.7c0-4.65-3.28-7.95-8-8.24a61.57,61.57,0,0,0-8.15,0,8.75,8.75,0,0,0-8.14,8.32q-.12,25.69,0,51.4c0,3.79,2.88,7.72,6.54,8.24,2.82.4,3.65,1.45,3.27,4-.32,2.17,1.11,5.14-.76,6.41-4.27,2.93-9,5.14-14,7.84v-4.24q0-60.8,0-121.59c0-8.11-3.27-11.34-11.34-11.34-70.54,0-141.09.1-211.63-.12-9.2,0-12.56,5.47-12.53,12.42.2,40.41.09,80.82.09,121.24V273c-3-1.63-5.42-3.44-8.14-4.34-5.5-1.83-7-5.56-6.11-10.81a1.37,1.37,0,0,0,0-.35c-.13-1.35.21-1.92,1.8-2.26,5.27-1.12,8.06-4.42,8.08-9.68q.13-24.81,0-49.63c0-5.59-3.8-9.29-9.32-9.53-2.24-.1-4.49-.09-6.73,0-5.1.26-8.51,3.58-8.89,8.74-.18,2.47-.09,5-.09,7.44,0,13.94,0,27.88,0,41.83,0,4.44,1.44,8.57,5.74,9.52s4.43,3.39,4.21,6.64c-.1,1.53.09,3.08,0,4.61-.17,1.94.67,2.93,2.37,3.81,4.29,2.22,8.35,4.92,12.72,7,3.39,1.58,4.33,3.76,4.3,7.4-.13,18.31,0,36.62.09,54.93a4.44,4.44,0,0,0,1.68.23c-.55.17-1.13.31-1.68.48-.06,10.51-.14,21-.17,31.53,0,11.11-.05,22.22,0,33.33,0,6.69,3.69,10.27,10.3,10.3a44.66,44.66,0,0,0,5.67,0c3-.38,3.77.76,3.71,3.7-.18,9.33-.17,18.67,0,28,.1,6.59,3.93,10.16,10.52,10.17s13.47,0,20.2,0c6.92,0,10.74-3.81,10.76-10.71,0-9.34.1-18.67,0-28,0-2.44.56-3.17,3.1-3.17q53.7.13,107.41,0c2.6,0,3.07.86,3,3.23-.12,9.45-.07,18.9,0,28.35,0,6.41,4,10.29,10.43,10.31s13-.3,19.49.09,11.89-3.31,11.7-11.71c-.17-7.44-.08-14.89-.09-22.33,0-7.88,0-7.88,7.92-7.88,8.42,0,11.6-3.12,11.6-11.44,0-37.58.33-75.16-.24-112.73-.14-8.68,1.66-14.31,10.17-17.09,7.46-2.43,11.37-7.25,9.46-15.54-.38-1.65.33-2.42,2.2-2.75a8.57,8.57,0,0,0,7.5-8.86Q435.88,220.22,435.83,194.7Zm-261.26,143a4.11,4.11,0,0,0,.85-1.82A2.4,2.4,0,0,1,174.57,337.7ZM227.9,152.87c1.62-1.3,3.52-1.17,5.4-1.17h56.33q28,0,56,0c4.6,0,7.7,2.48,7.65,6s-3.13,6.08-7.71,6.08q-56.32,0-112.65,0c-3.29,0-5.91-1.09-7-4.28A5.74,5.74,0,0,1,227.9,152.87Zm7,237.18c-4.36,0-8.73,0-13.1,0-4.6,0-9.2,0-13.81,0-5.61,0-9.57-3.72-9.88-9.38a88.23,88.23,0,0,1,0-9.2c.28-5.25,3.6-9.12,8.81-9.28q14.85-.45,29.72,0c5,.15,8.21,4.16,8.27,9.24,0,2.83,0,5.67,0,8.5C244.92,386.5,241.41,390,235,390.05Zm145.37-9.18a9.1,9.1,0,0,1-9.17,9.18c-2.36.05-4.73,0-7.09,0H357c-4.73,0-9.45.05-14.18,0a9.15,9.15,0,0,1-9.25-9.15c-.08-3.19-.07-6.38,0-9.57.1-4.68,3.2-8.67,7.83-9a224.85,224.85,0,0,1,31.47,0c4.23.3,7.35,4.29,7.47,8.58C380.41,374.25,380.38,377.56,380.32,380.87Zm11.36-72.76c0,7.43-3.6,11-11,11H198.15c-7,0-10.68-3.61-10.68-10.6q0-59.17,0-118.37c0-6.54,3.6-10.3,10.23-10.49,4.84-.14,9.69,0,14.53,0q83.64,0,167.28-.06c8.1,0,12.33,4.29,12.27,12.28C391.54,230.61,391.68,269.36,391.68,308.11Z"/></g></g></svg>