<svg width="78" height="76" viewBox="0 0 78 76" fill="none" xmlns="http://www.w3.org/2000/svg">
<path d="M77.9911 30.9824C78.0316 34.2612 77.2255 37.1971 75.9792 40.0728C73.7513 45.2146 70.4067 49.9431 66.5531 54.4745C61.5396 60.3728 55.828 65.8566 49.1442 70.728C47.208 72.1387 45.0476 73.3749 42.9533 74.6591C42.3849 75.0082 41.6908 75.242 41.0467 75.5207C39.6371 76.1332 38.2382 76.0883 36.8029 75.534C34.7005 74.7173 32.8494 73.6475 31.0819 72.4858C25.9509 69.111 21.5194 65.2472 17.4119 61.1659C12.821 56.61 8.75809 51.8061 5.48102 46.6346C3.2774 43.1567 1.47075 39.5746 0.55123 35.7659C-0.493868 31.4325 0.0111238 27.1461 1.52611 22.9363C4.46427 14.7769 10.5296 8.30385 20.1961 3.94904C34.0227 -2.28511 51.225 -1.04787 63.4623 7.0217C71.6476 12.4198 76.2209 19.296 77.6333 27.4054C77.7454 28.0455 77.8183 28.6896 77.8804 29.3337C77.9411 29.9585 77.9668 30.5873 77.9911 30.9824ZM70.9968 29.5185C71.0575 16.3795 56.7138 5.39247 39.4548 5.35777C21.4964 5.32204 7.09864 16.0039 7.04868 29.4338C7.00142 42.9647 21.5342 53.7405 39.2712 53.7038C56.6557 53.667 70.9374 42.8382 70.9968 29.5185V29.5185Z" fill="white"/>
<path d="M58.8472 19.8717C58.8472 19.3981 58.4043 19.0551 57.767 19.0316C57.401 19.0132 57.0339 19.0132 56.6679 19.0316C56.3788 19.0468 56.1071 19.1417 55.9043 19.2982C55.7015 19.4547 55.5816 19.6621 55.5674 19.8809C55.5566 21.6299 55.5566 23.3789 55.5674 25.1279C55.5674 25.5148 55.955 25.917 56.4492 25.9691C56.8299 26.0099 56.942 26.1171 56.8907 26.3774C56.8475 26.5989 57.0406 26.9021 56.7894 27.0328C56.2115 27.3309 55.5742 27.5565 54.8991 27.8321V27.4003C54.8991 23.2626 54.8991 19.1252 54.8991 14.9881C54.8991 14.1603 54.4575 13.8295 53.3665 13.8295C43.8418 13.8295 34.3158 13.8397 24.7911 13.8173C23.5488 13.8173 23.0951 14.3767 23.0992 15.0851C23.1262 19.2102 23.1114 23.3364 23.1114 27.4615V27.8627C22.7063 27.6963 22.3795 27.5126 22.0122 27.4197C21.2709 27.2329 21.0671 26.8521 21.1872 26.3162C21.19 26.3044 21.19 26.2923 21.1872 26.2804C21.1697 26.1426 21.2156 26.0855 21.4303 26.0508C22.1432 25.9354 22.5186 25.5985 22.5226 25.0616C22.5334 23.3731 22.5334 21.6844 22.5226 19.9953C22.5226 19.4246 22.0082 19.0479 21.2629 19.0224C20.9604 19.0122 20.6566 19.0132 20.3541 19.0224C19.6655 19.049 19.2051 19.3889 19.1537 19.9146C19.1294 20.1668 19.1416 20.425 19.1416 20.6741C19.1416 22.0971 19.1416 23.5212 19.1416 24.9442C19.1416 25.3974 19.3374 25.819 19.9166 25.916C20.5175 26.0181 20.5148 26.2621 20.4865 26.5949C20.473 26.751 20.4973 26.9093 20.4797 27.0644C20.4554 27.2625 20.5702 27.3646 20.7983 27.4534C21.3776 27.681 21.9258 27.9556 22.5159 28.1679C22.9736 28.3302 23.1005 28.5518 23.0978 28.9244C23.0789 30.7935 23.0978 32.6626 23.11 34.5317C23.1828 34.5495 23.2591 34.5574 23.3355 34.5552C23.2612 34.5715 23.1843 34.5858 23.1087 34.6032C23.1005 35.6761 23.0898 36.7469 23.0857 37.8228C23.0857 38.9559 23.079 40.0901 23.0857 41.2242C23.0857 41.9071 23.5839 42.2726 24.4764 42.2757C24.7314 42.2879 24.9871 42.2879 25.2421 42.2757C25.6471 42.2379 25.7525 42.3532 25.7444 42.6534C25.7187 43.6058 25.7214 44.5592 25.7444 45.5117C25.7579 46.1833 26.2764 46.5478 27.1648 46.5488C28.0731 46.5488 28.9823 46.5488 29.8923 46.5488C30.8267 46.5488 31.3439 46.1599 31.3466 45.4555C31.3466 44.5031 31.3587 43.5496 31.3398 42.5972C31.3398 42.3481 31.4154 42.2726 31.7584 42.2736C36.5923 42.2818 41.4267 42.2818 46.2615 42.2736C46.6125 42.2736 46.6774 42.3624 46.6733 42.6033C46.6558 43.568 46.6625 44.5327 46.6666 45.4984C46.6666 46.1517 47.2067 46.5478 48.0749 46.5498C48.9431 46.5519 49.8302 46.5192 50.7065 46.559C51.5828 46.5988 52.312 46.2221 52.2863 45.3636C52.2647 44.6041 52.2755 43.8436 52.2742 43.0841C52.2742 42.2808 52.2742 42.2808 53.3449 42.2797C54.4818 42.2797 54.9099 41.9612 54.9099 41.1119C54.9099 37.2757 54.9544 33.4394 54.8775 29.6042C54.8599 28.7182 55.1016 28.1445 56.2507 27.8607C57.258 27.6116 57.7873 27.1206 57.5294 26.2733C57.4781 26.1049 57.5726 26.0263 57.8264 25.9926C58.1144 25.9651 58.3783 25.857 58.5658 25.6895C58.7533 25.522 58.8509 25.3074 58.8391 25.0881C58.8481 23.3473 58.8508 21.6085 58.8472 19.8717ZM23.5704 34.4695C23.6289 34.4161 23.6688 34.3526 23.6866 34.2847C23.686 34.32 23.6753 34.3548 23.6552 34.3867C23.6352 34.4186 23.6063 34.4468 23.5704 34.4695V34.4695ZM30.7714 15.6017C30.9901 15.4689 31.2466 15.4822 31.5005 15.4822H39.1065H46.6679C47.289 15.4822 47.7076 15.7354 47.7008 16.0947C47.6941 16.454 47.2782 16.7143 46.6612 16.7154C41.5905 16.7154 36.5198 16.7154 31.4492 16.7154C31.0049 16.7154 30.6512 16.6041 30.504 16.2785C30.4447 16.1591 30.4387 16.0282 30.487 15.906C30.5352 15.7838 30.6351 15.6769 30.7714 15.6017V15.6017ZM31.7246 39.8145H29.9544C29.3333 39.8145 28.7122 39.8145 28.0911 39.8145C27.3322 39.8145 26.7976 39.4347 26.757 38.8569C26.7341 38.5441 26.7341 38.2306 26.757 37.9178C26.7935 37.3829 27.2418 36.9868 27.9453 36.9705C29.282 36.9398 30.6228 36.9419 31.9596 36.9705C32.6347 36.9868 33.0681 37.3961 33.0749 37.9137C33.0749 38.2036 33.0749 38.4925 33.0749 38.7814C33.0708 39.451 32.5969 39.8124 31.7246 39.8145V39.8145ZM51.3533 38.8763C51.3546 38.9997 51.3234 39.1219 51.2615 39.2361C51.1997 39.3502 51.1084 39.4539 50.993 39.5411C50.8777 39.6283 50.7405 39.6973 50.5896 39.744C50.4386 39.7908 50.2769 39.8144 50.1138 39.8134C49.7951 39.8185 49.4764 39.8134 49.1564 39.8134H48.2005C47.5631 39.8134 46.9245 39.8134 46.2871 39.8134C46.1237 39.8149 45.9615 39.7919 45.81 39.7456C45.6585 39.6993 45.5206 39.6307 45.4044 39.5438C45.2882 39.4569 45.196 39.3534 45.1331 39.2394C45.0702 39.1253 45.038 39.003 45.0381 38.8794C45.026 38.5537 45.0287 38.2281 45.0381 37.9025C45.0516 37.4247 45.4702 37.0174 46.0954 36.9837C47.5105 36.9082 48.9309 36.9082 50.346 36.9837C50.9158 37.0144 51.3371 37.4217 51.3533 37.8596C51.3641 38.2005 51.3614 38.5384 51.3533 38.8763V38.8763ZM52.8858 31.4488C52.8858 32.2083 52.3998 32.5717 51.4006 32.5717H26.7489C25.8038 32.5717 25.3082 32.2043 25.3082 31.4907C25.3082 27.4625 25.3082 23.4344 25.3082 19.4062C25.3082 18.7397 25.7943 18.3548 26.6909 18.3354C27.3444 18.3211 27.9979 18.3354 28.6528 18.3354C36.1818 18.3354 43.7108 18.333 51.2399 18.3283C52.3322 18.3283 52.9034 18.7672 52.8966 19.5818C52.8669 23.5375 52.8872 27.4973 52.8858 31.4488V31.4488Z" fill="white"/>
</svg>
